<?xml version="1.0" encoding="UTF-8" standalone="no"?>
<!-- Created with Inkscape (http://www.inkscape.org/) -->

<svg
   xmlns:dc="http://purl.org/dc/elements/1.1/"
   xmlns:cc="http://creativecommons.org/ns#"
   xmlns:rdf="http://www.w3.org/1999/02/22-rdf-syntax-ns#"
   xmlns:svg="http://www.w3.org/2000/svg"
   xmlns="http://www.w3.org/2000/svg"
   xmlns:sodipodi="http://sodipodi.sourceforge.net/DTD/sodipodi-0.dtd"
   xmlns:inkscape="http://www.inkscape.org/namespaces/inkscape"
   width="64px"
   height="64px"
   id="svg4054"
   version="1.1"
   inkscape:version="0.48.4 r9939"
   sodipodi:docname=".face">
  <defs
     id="defs4056" />
  <sodipodi:namedview
     id="base"
     pagecolor="#ffffff"
     bordercolor="#666666"
     borderopacity="1.0"
     inkscape:pageopacity="0.0"
     inkscape:pageshadow="2"
     inkscape:zoom="7.7781746"
     inkscape:cx="33.224826"
     inkscape:cy="36.593418"
     inkscape:current-layer="layer1"
     showgrid="true"
     inkscape:document-units="px"
     inkscape:grid-bbox="true"
     inkscape:object-paths="true"
     inkscape:snap-nodes="false"
     inkscape:snap-global="true"
     inkscape:window-width="679"
     inkscape:window-height="740"
     inkscape:window-x="0"
     inkscape:window-y="0"
     inkscape:window-maximized="0" />
  <metadata
     id="metadata4059">
    <rdf:RDF>
      <cc:Work
         rdf:about="">
        <dc:format>image/svg+xml</dc:format>
        <dc:type
           rdf:resource="http://purl.org/dc/dcmitype/StillImage" />
        <dc:title></dc:title>
      </cc:Work>
    </rdf:RDF>
  </metadata>
  <g
     id="layer1"
     inkscape:label="Layer 1"
     inkscape:groupmode="layer">
    <path
       style="fill:#ffffff;stroke:#000000;stroke-width:0.69999999000000002;stroke-linecap:butt;stroke-linejoin:miter;stroke-miterlimit:4;stroke-opacity:1;stroke-dasharray:none;marker-start:none;marker-mid:none"
       d="m 24.006015,42.243943 c -3.274707,7.255292 -4.582157,13.991978 0.405904,17.931302 2.151519,1.699164 12.849558,3.47305 16.557061,-0.625181 3.938087,-4.353115 -1.0764,-17.586354 -1.0764,-17.586354"
       id="path4076"
       inkscape:connector-curvature="0"
       sodipodi:nodetypes="csac" />
    <path
       style="fill:#ffffff;stroke:#000000;stroke-width:0.69999999000000002;stroke-linecap:butt;stroke-linejoin:miter;stroke-miterlimit:4;stroke-opacity:1;stroke-dasharray:none"
       d="m 26.096333,26.201772 c -4.042323,2.516342 -6.348206,9.497595 -4.09572,13.695728 1.7255,3.215948 6.823897,3.106874 10.469674,3.174035 3.340872,0.06154 7.806403,0.206766 9.694461,-2.553262 2.238905,-3.272909 1.388672,-8.944555 -1.335412,-11.82527 C 37.405252,25.07204 30.325924,23.568856 26.096333,26.201772 z"
       id="path4946"
       inkscape:connector-curvature="0"
       sodipodi:nodetypes="aaaaaa" />
    <path
       style="fill:#ffffff;stroke:#000000;stroke-width:0.5;stroke-linecap:butt;stroke-linejoin:miter;stroke-miterlimit:4;stroke-opacity:1;stroke-dasharray:none"
       d="M 29.401148,25.88332 C 25.599705,23.239159 31.908326,1.9627615 24.057605,2.8062006 15.173354,3.7606766 20.411165,24.556714 23.695913,29.609888"
       id="path5051"
       inkscape:connector-curvature="0"
       sodipodi:nodetypes="cac" />
    <path
       sodipodi:type="arc"
       style="fill:none;stroke:#000000;stroke-width:1.48166478;stroke-miterlimit:4;stroke-opacity:1;stroke-dasharray:none"
       id="path4958"
       sodipodi:cx="-10"
       sodipodi:cy="12.272727"
       sodipodi:rx="8.727273"
       sodipodi:ry="7.909091"
       d="m -1.272727,12.272727 a 8.727273,7.909091 0 1 1 -17.454546,0 8.727273,7.909091 0 1 1 17.454546,0 z"
       transform="matrix(0.20591049,0,0,0.35394978,38.1278,30.4756)" />
    <path
       transform="matrix(0.20591049,0,0,0.35394978,29.377838,30.430952)"
       d="m -1.272727,12.272727 a 8.727273,7.909091 0 1 1 -17.454546,0 8.727273,7.909091 0 1 1 17.454546,0 z"
       sodipodi:ry="7.909091"
       sodipodi:rx="8.727273"
       sodipodi:cy="12.272727"
       sodipodi:cx="-10"
       id="path4971"
       style="fill:none;stroke:#000000;stroke-width:1.48166478;stroke-miterlimit:4;stroke-opacity:1;stroke-dasharray:none"
       sodipodi:type="arc" />
    <path
       style="fill:none;stroke:#000000;stroke-width:0.40000001;stroke-linecap:butt;stroke-linejoin:miter;stroke-miterlimit:4;stroke-opacity:1;stroke-dasharray:none"
       d="m 29.564883,38.867308 4.22688,2.453729"
       id="path5009"
       inkscape:connector-curvature="0"
       inkscape:transform-center-x="9.5992513"
       inkscape:transform-center-y="1.3719652"
       sodipodi:nodetypes="cc" />
    <path
       style="fill:none;stroke:#000000;stroke-width:0.40000001;stroke-linecap:butt;stroke-linejoin:miter;stroke-miterlimit:4;stroke-opacity:1;stroke-dasharray:none"
       d="M 29.273166,41.218999 33.80458,38.651941"
       id="path5011"
       inkscape:connector-curvature="0"
       inkscape:transform-center-x="9.2818989"
       inkscape:transform-center-y="1.5943643"
       sodipodi:nodetypes="cc" />
    <path
       style="fill:#ffd5d5;stroke:none"
       d="M 28.042159,26.906574 C 23.440364,22.205762 30.306617,5.3850999 23.386399,6.4322595 15.830193,7.5756562 23.156275,28.244923 25.144662,29.291415 c 1.683373,-0.05216 2.788941,0.254025 2.897497,-2.384841 z"
       id="path5193"
       inkscape:connector-curvature="0"
       sodipodi:nodetypes="cacc" />
    <path
       sodipodi:nodetypes="cc"
       inkscape:connector-curvature="0"
       id="path5195"
       d="M 41.782128,17.297903 C 39.371762,20.66686 31.4949,31.284821 42.067682,28.296591"
       style="fill:#ffd5d5;stroke:#ffffff;stroke-width:1px;stroke-linecap:butt;stroke-linejoin:miter;stroke-opacity:1" />
    <path
       sodipodi:nodetypes="ccc"
       inkscape:connector-curvature="0"
       id="path5049"
       d="m 35.676779,27.058138 c 8.177564,-26.9536452 18.720619,9.418154 5.704614,13.527051 -8.427644,2.699 4.728112,-22.58348 -1.175603,-20.13222"
       style="fill:#ffffff;stroke:#000000;stroke-width:0.5;stroke-linecap:butt;stroke-linejoin:miter;stroke-miterlimit:4;stroke-opacity:1;stroke-dasharray:none" />
    <path
       style="fill:#ffffff;stroke:#000000;stroke-width:0.5;stroke-linecap:butt;stroke-linejoin:miter;stroke-miterlimit:4;stroke-opacity:1;stroke-dasharray:none"
       d="m 35.959331,46.147059 c 2.498544,-11.952772 6.469435,-7.855787 4.325089,1.38464"
       id="path5043"
       inkscape:connector-curvature="0" />
    <path
       style="fill:#ffffff;stroke:#000000;stroke-width:0.5;stroke-linecap:butt;stroke-linejoin:miter;stroke-miterlimit:4;stroke-opacity:1;stroke-dasharray:none"
       d="m 23.372254,46.704214 c -0.329883,11.929175 6.983694,6.782242 3.29657,-0.575255"
       id="path5043-0"
       inkscape:connector-curvature="0"
       sodipodi:nodetypes="cc" />
  </g>
</svg>
