<?xml version="1.0" encoding="UTF-8" standalone="no"?>
<!-- Created with Inkscape (http://www.inkscape.org/) -->

<svg
   xmlns:dc="http://purl.org/dc/elements/1.1/"
   xmlns:cc="http://creativecommons.org/ns#"
   xmlns:rdf="http://www.w3.org/1999/02/22-rdf-syntax-ns#"
   xmlns:svg="http://www.w3.org/2000/svg"
   xmlns="http://www.w3.org/2000/svg"
   version="1.1"
   width="48"
   height="48"
   id="svg2985">
  <defs
     id="defs2987" />
  <metadata
     id="metadata2990">
    <rdf:RDF>
      <cc:Work
         rdf:about="">
        <dc:format>image/svg+xml</dc:format>
        <dc:type
           rdf:resource="http://purl.org/dc/dcmitype/StillImage" />
        <dc:title></dc:title>
      </cc:Work>
    </rdf:RDF>
  </metadata>
  <g
     transform="matrix(0.80507131,0,0,0.80507131,-0.87691678,-0.10771297)"
     id="layer1">
    <path
       d="m 53.037577,48.080015 c 9.532548,6.747277 1.327972,7.614975 -3.025843,1.777849"
       id="path3002"
       style="fill:#f4e3d7;stroke:#000000;stroke-width:1px;stroke-linecap:butt;stroke-linejoin:miter;stroke-opacity:1" />
    <path
       d="m 17.224826,45.127457 c -5.727273,6.545454 -3.090909,8.181818 3.181818,2.727273"
       id="path2997"
       style="fill:#f4e3d7;stroke:#000000;stroke-width:1px;stroke-linecap:butt;stroke-linejoin:miter;stroke-opacity:1" />
    <path
       d="m 15.330189,33.141691 c -4.468999,26.53122 35.531,16.349402 35.531,16.349402 9.272728,-4.545454 2.545456,-13.272727 2.545456,-13.272727 C 47.588463,25.309275 31.588463,27.672911 31.588463,27.672911"
       id="path2991"
       style="fill:#f4e3d7;stroke:#000000;stroke-width:1px;stroke-linecap:butt;stroke-linejoin:miter;stroke-opacity:1" />
    <path
       d="m 23.54167,47.558052 c -7.672106,11.199751 -0.490067,11.582807 3.90909,2.090909"
       id="path2993"
       style="fill:#f4e3d7;stroke:#000000;stroke-width:1px;stroke-linecap:butt;stroke-linejoin:miter;stroke-opacity:1" />
    <path
       d="m 43.274998,48.622793 c 4.903947,12.142753 10.286067,11.284368 5.408863,-0.279188"
       id="path3000"
       style="fill:#f4e3d7;stroke:#000000;stroke-width:1px;stroke-linecap:butt;stroke-linejoin:miter;stroke-opacity:1" />
    <path
       d="m 52.7821,31.48905 c 1.4211,0.348232 2.087499,1.939044 1.715448,3.27541 -0.533263,1.915421 -2.699491,2.797412 -4.516454,2.244619 -2.492794,-0.758407 -3.624999,-3.603006 -2.851748,-5.983435 1.025099,-3.155733 4.654332,-4.573756 7.683593,-3.538832 2.272727,0.77646 3.969937,2.75191 4.546704,5.064743"
       transform="matrix(-0.40909318,0.82077253,-0.77828333,-0.42746154,101.51534,-0.96049267)"
       id="path3004"
       style="fill:none;stroke:#000000;stroke-width:1px;stroke-linecap:butt;stroke-linejoin:miter;stroke-opacity:1" />
    <path
       d=""
       id="path3070"
       style="fill:#ffe6d5;stroke:none" />
    <path
       d="m 16.562399,33.444332 c 0,0 -15.2524843,-1.88628 -1.735476,-19.283268 10.034266,-8.3063348 15.043185,3.976861 15.043185,3.976861 8.029864,19.259646 -13.307709,15.306407 -13.307709,15.306407 z"
       id="path2999"
       style="fill:#f4e3d7;stroke:#000000;stroke-width:1px;stroke-linecap:butt;stroke-linejoin:miter;stroke-opacity:1" />
    <path
       d="m 21.999999,25.818182 a 1.2727273,1.2727273 0 1 1 -2.545454,0 1.2727273,1.2727273 0 1 1 2.545454,0 z"
       transform="translate(-2.956992,-3.5998163)"
       id="path3009"
       style="fill:#ffffff;stroke:#000000" />
    <path
       d="M 28.363636,29 A 1.1818181,1.1818181 0 1 1 26,29 a 1.1818181,1.1818181 0 1 1 2.363636,0 z"
       transform="translate(-2.956992,-3.5998163)"
       id="path3014"
       style="fill:#ffffff;stroke:#000000" />
    <path
       d="m 39.578441,19.534895 c 0.321568,0.380236 -0.315457,0.713645 -0.621895,0.687557 -0.799393,-0.06805 -1.116962,-1.00984 -0.913917,-1.683553 0.344407,-1.14276 1.707833,-1.552809 2.745212,-1.140277 1.487336,0.591465 1.997061,2.412549 1.366636,3.80687 -0.82924,1.834045 -3.119716,2.444968 -4.868528,1.592996 -2.182049,-1.063033 -2.894791,-3.828078 -1.819356,-5.930186 1.294774,-2.530841 4.537123,-3.345739 6.991844,-2.045716 2.880136,1.525324 3.797402,5.2466 2.272076,8.053502 -1.09398,2.013139 -3.244112,3.285734 -5.523135,3.366492"
       transform="matrix(1.4138971,0,0,1.3949538,-24.866324,-16.891837)"
       id="path2989"
       style="fill:none;stroke:#aa4400;stroke-width:1px;stroke-linecap:butt;stroke-linejoin:miter;stroke-opacity:1" />
    <path
       d="m 49.454544,32.18182 c -0.02735,0.319062 -0.443583,0.120549 -0.530303,-0.04546 -0.235007,-0.44986 0.199136,-0.919585 0.621212,-1.015151 0.754995,-0.170945 1.411354,0.483424 1.5,1.196969 0.130091,1.047157 -0.76957,1.912168 -1.772727,1.984849 -1.33705,0.09687 -2.416502,-1.056113 -2.469697,-2.348484 -0.06694,-1.626318 1.342782,-2.922592 2.924242,-2.954546 1.915359,-0.0387 3.429684,1.629509 3.439394,3.499999 0.007,1.344103 -0.730699,2.607289 -1.868347,3.309887"
       transform="matrix(0.60618843,-1.9313593,1.9313593,0.60618843,-82.441144,89.451003)"
       id="path2987"
       style="fill:none;stroke:#803300;stroke-width:1px;stroke-linecap:butt;stroke-linejoin:miter;stroke-opacity:1" />
  </g>
</svg>
